<svg xmlns="http://www.w3.org/2000/svg" xmlns:xlink="http://www.w3.org/1999/xlink" width="500" zoomAndPan="magnify" viewBox="0 0 375 374.999991" height="500" preserveAspectRatio="xMidYMid meet" version="1.0"><defs><g/><clipPath id="e302b7f650"><path d="M 4.382812 4.382812 L 369.632812 4.382812 L 369.632812 369.632812 L 4.382812 369.632812 Z M 4.382812 4.382812 " clip-rule="nonzero"/></clipPath><clipPath id="f1da4f3969"><path d="M 7.582031 144.488281 L 25.8125 144.488281 L 25.8125 173 L 7.582031 173 Z M 7.582031 144.488281 " clip-rule="nonzero"/></clipPath><clipPath id="a0cf6927f9"><path d="M 13 115.671875 L 366.625 115.671875 L 366.625 175 L 13 175 Z M 13 115.671875 " clip-rule="nonzero"/></clipPath><clipPath id="a55fb03ff8"><path d="M 136 175.269531 L 244.894531 175.269531 L 244.894531 189.855469 L 136 189.855469 Z M 136 175.269531 " clip-rule="nonzero"/></clipPath></defs><rect x="-37.5" width="450" fill="#ffffff" y="-37.499999" height="449.999989" fill-opacity="1"/><rect x="-37.5" width="450" fill="#ffffff" y="-37.499999" height="449.999989" fill-opacity="1"/><rect x="-37.5" width="450" fill="#ffffff" y="-37.499999" height="449.999989" fill-opacity="1"/><g clip-path="url(#e302b7f650)"><path fill="#ffffff" d="M 187.007812 4.382812 C 86.144531 4.382812 4.382812 86.144531 4.382812 187.007812 C 4.382812 287.867188 86.144531 369.632812 187.007812 369.632812 C 287.867188 369.632812 369.632812 287.867188 369.632812 187.007812 C 369.632812 86.144531 287.867188 4.382812 187.007812 4.382812 " fill-opacity="1" fill-rule="nonzero"/></g><path fill="#38b6ff" d="M 332.699219 159.675781 L 339.929688 167.628906 C 340.789062 168.578125 341.960938 169.183594 343.222656 169.339844 L 353.429688 170.609375 C 353.664062 170.636719 353.835938 170.847656 353.824219 171.085938 C 353.808594 171.324219 353.609375 171.511719 353.371094 171.511719 L 340.023438 171.511719 C 339.875 171.511719 339.734375 171.4375 339.648438 171.316406 L 331.996094 160.238281 C 331.859375 160.042969 331.898438 159.773438 332.085938 159.625 C 332.273438 159.476562 332.542969 159.5 332.699219 159.675781 " fill-opacity="1" fill-rule="nonzero"/><g clip-path="url(#f1da4f3969)"><path fill="#004aad" d="M 7.601562 172.597656 L 18.035156 150.761719 C 18.097656 150.632812 18.097656 150.492188 18.039062 150.359375 C 17.980469 150.230469 17.863281 150.128906 17.71875 150.074219 L 16.761719 149.734375 C 16.644531 149.695312 16.585938 149.578125 16.632812 149.472656 L 18.550781 144.816406 C 18.589844 144.726562 18.691406 144.671875 18.792969 144.6875 L 25.277344 145.535156 C 25.351562 145.546875 25.414062 145.589844 25.445312 145.652344 C 25.480469 145.710938 25.476562 145.785156 25.4375 145.84375 L 8.003906 172.78125 C 7.960938 172.847656 7.886719 172.882812 7.808594 172.882812 C 7.773438 172.882812 7.738281 172.875 7.707031 172.863281 C 7.601562 172.8125 7.554688 172.699219 7.601562 172.597656 " fill-opacity="1" fill-rule="nonzero"/></g><g clip-path="url(#a0cf6927f9)"><path fill="#000000" d="M 13.109375 137.726562 L 13.417969 138.828125 C 14.277344 141.871094 17.363281 143.699219 20.433594 142.984375 C 21.53125 142.730469 22.515625 142.507812 23.0625 142.394531 C 23.964844 142.242188 24.949219 142.101562 25.988281 141.9375 C 27.03125 141.785156 28.132812 141.585938 29.324219 141.46875 C 30.511719 141.332031 31.765625 141.1875 33.074219 141.03125 C 34.386719 140.886719 35.785156 140.792969 37.226562 140.660156 C 37.945312 140.597656 38.683594 140.535156 39.4375 140.472656 C 40.191406 140.425781 40.964844 140.375 41.75 140.332031 C 43.324219 140.246094 44.945312 140.117188 46.632812 140.054688 C 53.375 139.722656 61.03125 139.617188 69.390625 139.648438 C 77.753906 139.707031 86.828125 139.984375 96.425781 140.421875 C 106.027344 140.859375 116.152344 141.460938 126.625 142.195312 C 131.859375 142.558594 137.183594 142.960938 142.570312 143.386719 C 147.957031 143.828125 153.40625 144.316406 158.90625 144.8125 C 169.886719 145.8125 181.042969 146.914062 192.203125 148.046875 C 197.78125 148.613281 203.363281 149.175781 208.921875 149.742188 C 211.710938 150.019531 214.488281 150.292969 217.253906 150.566406 C 218.644531 150.691406 220.027344 150.824219 221.414062 150.949219 C 222.785156 151.082031 224.195312 151.175781 225.574219 151.28125 C 231.105469 151.726562 236.628906 151.964844 242.089844 151.96875 C 247.554688 152.007812 252.953125 151.765625 258.226562 151.339844 C 263.496094 150.917969 268.632812 150.367188 273.65625 149.972656 C 278.675781 149.570312 283.597656 149.3125 288.375 149.1875 C 289.574219 149.167969 290.773438 149.144531 291.960938 149.125 C 292.550781 149.121094 293.144531 149.113281 293.738281 149.105469 L 294.179688 149.097656 L 294.59375 149.105469 L 295.453125 149.121094 C 296.027344 149.140625 296.59375 149.140625 297.160156 149.167969 C 297.730469 149.210938 298.292969 149.25 298.855469 149.285156 C 299.984375 149.347656 301.09375 149.511719 302.199219 149.632812 C 306.621094 150.199219 310.855469 151.117188 314.871094 152.191406 C 322.902344 154.355469 330.074219 157.09375 336.324219 159.726562 C 342.558594 162.429688 347.871094 165.0625 352.191406 167.324219 C 356.515625 169.578125 359.84375 171.480469 362.085938 172.816406 C 363.214844 173.484375 364.0625 174.003906 364.632812 174.351562 C 364.796875 174.453125 364.976562 174.503906 365.15625 174.503906 C 365.492188 174.503906 365.816406 174.335938 366.003906 174.027344 C 366.808594 172.703125 366.367188 170.972656 365.019531 170.203125 C 364.691406 170.011719 364.324219 169.804688 363.921875 169.578125 C 361.613281 168.273438 358.203125 166.398438 353.792969 164.171875 C 349.378906 161.945312 343.953125 159.363281 337.589844 156.714844 C 331.230469 154.066406 323.929688 151.308594 315.675781 149.121094 C 311.550781 148.039062 307.1875 147.113281 302.585938 146.542969 C 301.433594 146.421875 300.277344 146.257812 299.09375 146.195312 C 298.507812 146.152344 297.914062 146.109375 297.320312 146.066406 C 296.722656 146.042969 296.121094 146.035156 295.519531 146.015625 L 294.617188 145.996094 L 294.148438 145.988281 L 293.703125 145.996094 C 293.117188 145.996094 292.527344 146.003906 291.929688 146.011719 C 290.742188 146.027344 289.542969 146.042969 288.339844 146.058594 C 283.464844 146.171875 278.492188 146.421875 273.417969 146.808594 C 268.34375 147.191406 263.195312 147.734375 257.984375 148.128906 C 252.773438 148.539062 247.492188 148.761719 242.121094 148.703125 C 236.761719 148.636719 231.332031 148.339844 225.859375 147.839844 C 224.488281 147.71875 223.136719 147.613281 221.753906 147.464844 C 220.378906 147.320312 219 147.179688 217.621094 147.035156 C 214.863281 146.730469 212.09375 146.425781 209.320312 146.121094 C 203.773438 145.492188 198.199219 144.863281 192.625 144.234375 C 170.328125 141.703125 147.996094 139.34375 127.011719 137.554688 C 122.617188 137.175781 118.285156 136.824219 114.019531 136.503906 C 113.65625 136.472656 113.285156 136.441406 112.917969 136.414062 C 113.429688 136.199219 113.988281 135.96875 114.59375 135.726562 C 120.515625 133.351562 131 129.726562 147.316406 125.9375 C 164.539062 121.9375 184.160156 122.890625 198.117188 124.511719 C 207.832031 125.640625 217.402344 127.859375 226.605469 131.191406 C 226.652344 131.210938 226.691406 131.222656 226.738281 131.242188 C 237.832031 135.261719 246.78125 139.4375 252.9375 142.53125 C 256.011719 144.085938 258.394531 145.371094 260.003906 146.265625 C 260.527344 146.558594 261.011719 146.855469 261.398438 147.089844 C 261.402344 147.089844 261.402344 147.09375 261.40625 147.09375 C 261.414062 147.097656 261.425781 147.101562 261.433594 147.109375 C 261.828125 147.328125 262.382812 147.398438 262.460938 147.40625 C 262.464844 147.40625 262.46875 147.40625 262.46875 147.40625 C 263.304688 147.371094 264.902344 147.230469 266.039062 147.125 C 266.09375 147.121094 266.144531 147.117188 266.195312 147.113281 C 266.207031 147.113281 266.222656 147.113281 266.238281 147.109375 C 267.070312 146.988281 266.761719 146.671875 266.519531 146.503906 C 266.507812 146.492188 266.492188 146.484375 266.480469 146.480469 C 266.457031 146.464844 266.429688 146.449219 266.40625 146.433594 C 266.390625 146.425781 266.367188 146.410156 266.34375 146.398438 C 266.339844 146.390625 266.339844 146.390625 266.339844 146.390625 C 265.222656 145.703125 263.53125 144.660156 263.429688 144.597656 C 263.011719 144.355469 262.386719 143.988281 261.574219 143.511719 C 259.949219 142.578125 257.542969 141.234375 254.445312 139.617188 C 248.242188 136.390625 239.246094 132.027344 228.03125 127.785156 C 222.421875 125.660156 216.261719 123.582031 209.628906 121.761719 C 203 119.941406 195.898438 118.359375 188.449219 117.28125 C 181 116.25 173.195312 115.738281 165.269531 116.074219 C 164.273438 116.105469 163.285156 116.203125 162.292969 116.265625 L 160.796875 116.375 L 160.046875 116.429688 L 159.308594 116.503906 C 157.351562 116.703125 155.394531 116.894531 153.429688 117.089844 C 149.496094 117.484375 145.539062 117.933594 141.589844 118.355469 C 133.699219 119.25 125.804688 120.175781 118.054688 121.152344 C 114.175781 121.636719 110.332031 122.125 106.53125 122.628906 C 102.734375 123.117188 98.984375 123.621094 95.292969 124.125 C 91.605469 124.636719 87.980469 125.140625 84.433594 125.632812 C 80.882812 126.117188 77.417969 126.652344 74.042969 127.160156 C 73.066406 127.304688 72.101562 127.453125 71.140625 127.597656 C 70.441406 127.707031 69.742188 127.808594 69.058594 127.917969 L 113.925781 135.832031 C 113.925781 135.832031 113.882812 135.828125 113.785156 135.824219 C 113.757812 135.824219 113.726562 135.816406 113.695312 135.816406 C 111.621094 135.648438 95.871094 134.472656 76.605469 134.035156 C 55.136719 133.539062 29.289062 133.960938 13.125 137.722656 C 13.121094 137.722656 13.113281 137.726562 13.109375 137.726562 " fill-opacity="1" fill-rule="nonzero"/></g><path fill="#000000" d="M 223.242188 142.75 L 223.242188 141.515625 C 223.242188 140.699219 223.683594 139.953125 224.394531 139.5625 L 226.828125 138.234375 C 227.714844 137.746094 228.765625 137.675781 229.710938 138.035156 L 239.96875 141.945312 C 240.546875 142.164062 240.933594 142.726562 240.933594 143.34375 L 240.933594 145.261719 C 240.933594 145.425781 240.871094 145.585938 240.761719 145.710938 L 239.441406 147.199219 C 239.3125 147.34375 239.128906 147.429688 238.933594 147.429688 L 233.324219 147.429688 C 233.085938 147.429688 232.867188 147.304688 232.742188 147.097656 C 232.621094 146.894531 232.613281 146.640625 232.726562 146.429688 L 233.082031 145.757812 L 224.410156 144.15625 C 223.730469 144.03125 223.242188 143.441406 223.242188 142.75 " fill-opacity="1" fill-rule="nonzero"/><path fill="#000000" d="M 106.5625 145.417969 L 113.753906 142.960938 C 113.957031 142.890625 114.191406 142.953125 114.308594 143.113281 C 114.425781 143.269531 114.390625 143.472656 114.222656 143.59375 L 110.371094 146.429688 C 110.046875 146.667969 109.960938 147.058594 110.160156 147.375 L 127.871094 175.609375 L 136.53125 181.488281 C 136.71875 181.617188 136.753906 181.84375 136.609375 182.007812 C 136.523438 182.105469 136.386719 182.160156 136.246094 182.160156 C 136.160156 182.160156 136.074219 182.140625 135.996094 182.097656 L 126.507812 176.796875 C 126.449219 176.765625 126.398438 176.71875 126.363281 176.667969 L 106.335938 145.949219 C 106.277344 145.855469 106.265625 145.742188 106.308594 145.640625 C 106.351562 145.539062 106.445312 145.457031 106.5625 145.417969 " fill-opacity="1" fill-rule="nonzero"/><g clip-path="url(#a55fb03ff8)"><path fill="#000000" d="M 136.023438 175.449219 C 136.039062 175.347656 136.148438 175.273438 136.273438 175.289062 L 239.679688 185.976562 C 239.757812 185.988281 239.820312 186.023438 239.855469 186.082031 C 239.890625 186.140625 239.886719 186.210938 239.84375 186.265625 L 238.746094 187.769531 L 244.359375 189.488281 C 244.46875 189.523438 244.53125 189.621094 244.5 189.714844 C 244.476562 189.796875 244.382812 189.855469 244.28125 189.855469 C 244.269531 189.855469 244.257812 189.855469 244.246094 189.855469 L 136.210938 175.660156 C 136.089844 175.648438 136.007812 175.550781 136.023438 175.449219 " fill-opacity="1" fill-rule="nonzero"/></g><path fill="#000000" d="M 296.230469 158.625 C 307.746094 158.625 318.5 164.832031 324.296875 174.824219 C 324.46875 175.121094 324.382812 175.484375 324.09375 175.667969 C 323.984375 175.738281 323.867188 175.769531 323.75 175.769531 C 323.550781 175.769531 323.359375 175.675781 323.234375 175.5 C 317.144531 166.75 306.792969 161.3125 296.230469 161.3125 C 286.710938 161.3125 276.871094 165.9375 270.550781 173.378906 C 270.332031 173.640625 269.960938 173.679688 269.691406 173.472656 C 269.421875 173.265625 269.363281 172.894531 269.558594 172.613281 C 275.628906 163.855469 285.601562 158.625 296.230469 158.625 " fill-opacity="1" fill-rule="nonzero"/><path fill="#000000" d="M 63.039062 151.832031 C 74.554688 151.832031 85.308594 158.042969 91.105469 168.035156 C 91.277344 168.332031 91.1875 168.695312 90.898438 168.878906 C 90.792969 168.949219 90.675781 168.980469 90.554688 168.980469 C 90.359375 168.980469 90.167969 168.886719 90.042969 168.710938 C 83.953125 159.957031 73.605469 154.523438 63.039062 154.523438 C 53.519531 154.523438 43.679688 159.148438 37.359375 166.589844 C 37.140625 166.851562 36.769531 166.890625 36.5 166.683594 C 36.230469 166.472656 36.171875 166.105469 36.367188 165.824219 C 42.4375 157.0625 52.410156 151.832031 63.039062 151.832031 " fill-opacity="1" fill-rule="nonzero"/><path fill="#000000" d="M 266.039062 147.125 L 266.039062 147.128906 C 266.09375 147.125 266.148438 147.121094 266.195312 147.113281 C 266.144531 147.117188 266.09375 147.121094 266.039062 147.125 " fill-opacity="1" fill-rule="nonzero"/><g fill="#004aad" fill-opacity="1"><g transform="translate(56.018989, 221.614897)"><g><path d="M 18.25 -25.78125 C 20.363281 -26.269531 21.785156 -26.53125 22.515625 -26.5625 C 24.628906 -26.5625 25.769531 -25.554688 25.9375 -23.546875 L 17.875 -0.46875 C 15.3125 -0.0507812 13.628906 0.160156 12.828125 0.171875 C 11.117188 0.171875 9.804688 -0.597656 8.890625 -2.140625 L 0.796875 -25.46875 C 3.429688 -26.195312 5.160156 -26.578125 5.984375 -26.609375 C 7.179688 -26.609375 8.289062 -26.066406 9.3125 -24.984375 L 13.65625 -12.625 Z M 18.25 -25.78125 "/></g></g></g><g fill="#004aad" fill-opacity="1"><g transform="translate(81.144278, 221.614897)"><g><path d="M 3.015625 -25.265625 C 5.097656 -26.160156 6.640625 -26.660156 7.640625 -26.765625 C 9.398438 -26.597656 10.585938 -25.789062 11.203125 -24.34375 L 11.203125 -6.390625 L 22.125 -6.390625 C 22.78125 -4.460938 23.109375 -3.253906 23.109375 -2.765625 C 23.046875 -1.847656 22.363281 -0.832031 21.0625 0.28125 L 3.015625 0.28125 Z M 3.015625 -25.265625 "/></g></g></g><g fill="#004aad" fill-opacity="1"><g transform="translate(103.099405, 221.614897)"><g/></g></g><g fill="#004aad" fill-opacity="1"><g transform="translate(113.896536, 221.614897)"><g><path d="M 24.4375 -5.9375 C 24.320312 -4.707031 23.316406 -3.382812 21.421875 -1.96875 C 19.523438 -0.550781 17.160156 0.15625 14.328125 0.15625 C 10.003906 0.132812 6.785156 -1.117188 4.671875 -3.609375 C 2.554688 -6.109375 1.5 -9.25 1.5 -13.03125 C 1.5 -16.507812 2.640625 -19.613281 4.921875 -22.34375 C 7.210938 -25.070312 10.359375 -26.4375 14.359375 -26.4375 C 17.203125 -26.4375 20.140625 -25.265625 23.171875 -22.921875 C 23.566406 -22.535156 24.03125 -21.953125 24.5625 -21.171875 C 23.582031 -18.691406 22.1875 -17.453125 20.375 -17.453125 C 19.300781 -17.453125 18.398438 -17.734375 17.671875 -18.296875 C 16.441406 -19.046875 15.335938 -19.421875 14.359375 -19.421875 L 14.328125 -19.421875 C 13.015625 -19.421875 11.929688 -18.929688 11.078125 -17.953125 C 10.234375 -16.984375 9.8125 -15.34375 9.8125 -13.03125 C 9.8125 -10.414062 10.242188 -8.660156 11.109375 -7.765625 C 11.972656 -6.867188 13.046875 -6.421875 14.328125 -6.421875 C 15.347656 -6.421875 16.039062 -6.597656 16.40625 -6.953125 C 16.769531 -7.304688 17.316406 -7.96875 18.046875 -8.9375 C 22.242188 -8.832031 24.375 -7.832031 24.4375 -5.9375 Z M 24.4375 -5.9375 "/></g></g></g><g fill="#004aad" fill-opacity="1"><g transform="translate(138.123194, 221.614897)"><g><path d="M 14.03125 -17.328125 L 11.875 -12.484375 L 16.171875 -12.484375 Z M 16.90625 -8.03125 L 11.203125 -7.71875 L 8.484375 -0.671875 C 6.734375 -0.160156 5.421875 0.09375 4.546875 0.09375 C 3.128906 0.09375 1.863281 -0.601562 0.75 -2 L 9.78125 -25.28125 C 12.644531 -26.070312 14.535156 -26.46875 15.453125 -26.46875 C 16.710938 -26.46875 17.9375 -25.984375 19.125 -25.015625 L 27.484375 -0.84375 C 24.734375 -0.164062 22.925781 0.171875 22.0625 0.171875 C 20.65625 0.171875 19.664062 -0.425781 19.09375 -1.625 Z M 16.90625 -8.03125 "/></g></g></g><g fill="#004aad" fill-opacity="1"><g transform="translate(164.746199, 221.614897)"><g><path d="M 10.03125 -15.328125 L 13.859375 -15.53125 C 14.472656 -15.59375 14.992188 -15.863281 15.421875 -16.34375 C 15.859375 -16.832031 16.078125 -17.484375 16.078125 -18.296875 C 16.078125 -19.179688 15.738281 -19.75 15.0625 -20 C 14.382812 -20.257812 13.679688 -20.398438 12.953125 -20.421875 L 10.03125 -20.421875 Z M 17.046875 -0.921875 L 11.40625 -9.90625 L 10.03125 -9.984375 L 10.03125 -0.84375 C 8.53125 -0.0820312 7.375 0.304688 6.5625 0.328125 C 4.726562 0.328125 3.546875 -0.488281 3.015625 -2.125 L 3.015625 -26.140625 L 12.90625 -26.140625 C 15.96875 -26.117188 18.492188 -25.378906 20.484375 -23.921875 C 22.484375 -22.472656 23.484375 -20.585938 23.484375 -18.265625 C 23.484375 -16.742188 22.890625 -15.113281 21.703125 -13.375 C 20.515625 -11.632812 19.742188 -10.742188 19.390625 -10.703125 L 25.515625 -1.140625 C 22.816406 -0.160156 20.992188 0.328125 20.046875 0.328125 C 18.941406 0.328125 17.941406 -0.0859375 17.046875 -0.921875 Z M 17.046875 -0.921875 "/></g></g></g><g fill="#004aad" fill-opacity="1"><g transform="translate(190.146073, 221.614897)"><g><path d="M 3.015625 -26.109375 L 21.96875 -26.109375 C 23.363281 -25.054688 24.070312 -24.175781 24.09375 -23.46875 C 24.070312 -22.75 23.617188 -21.679688 22.734375 -20.265625 L 11.28125 -20.265625 L 11.28125 -15.921875 L 20.5625 -16.671875 C 22.425781 -15.960938 23.359375 -15.207031 23.359375 -14.40625 C 23.359375 -13.507812 22.78125 -12.453125 21.625 -11.234375 L 11.28125 -10.484375 L 11.28125 -5.640625 L 21.71875 -5.640625 C 23.1875 -4.828125 23.9375 -3.90625 23.96875 -2.875 C 23.96875 -2.289062 23.582031 -1.238281 22.8125 0.28125 L 3.015625 0.28125 Z M 3.015625 -26.109375 "/></g></g></g><g fill="#004aad" fill-opacity="1"><g transform="translate(215.246412, 221.614897)"><g><path d="M 24.4375 -5.9375 C 24.320312 -4.707031 23.316406 -3.382812 21.421875 -1.96875 C 19.523438 -0.550781 17.160156 0.15625 14.328125 0.15625 C 10.003906 0.132812 6.785156 -1.117188 4.671875 -3.609375 C 2.554688 -6.109375 1.5 -9.25 1.5 -13.03125 C 1.5 -16.507812 2.640625 -19.613281 4.921875 -22.34375 C 7.210938 -25.070312 10.359375 -26.4375 14.359375 -26.4375 C 17.203125 -26.4375 20.140625 -25.265625 23.171875 -22.921875 C 23.566406 -22.535156 24.03125 -21.953125 24.5625 -21.171875 C 23.582031 -18.691406 22.1875 -17.453125 20.375 -17.453125 C 19.300781 -17.453125 18.398438 -17.734375 17.671875 -18.296875 C 16.441406 -19.046875 15.335938 -19.421875 14.359375 -19.421875 L 14.328125 -19.421875 C 13.015625 -19.421875 11.929688 -18.929688 11.078125 -17.953125 C 10.234375 -16.984375 9.8125 -15.34375 9.8125 -13.03125 C 9.8125 -10.414062 10.242188 -8.660156 11.109375 -7.765625 C 11.972656 -6.867188 13.046875 -6.421875 14.328125 -6.421875 C 15.347656 -6.421875 16.039062 -6.597656 16.40625 -6.953125 C 16.769531 -7.304688 17.316406 -7.96875 18.046875 -8.9375 C 22.242188 -8.832031 24.375 -7.832031 24.4375 -5.9375 Z M 24.4375 -5.9375 "/></g></g></g><g fill="#004aad" fill-opacity="1"><g transform="translate(239.47307, 221.614897)"><g><path d="M 14.03125 -17.328125 L 11.875 -12.484375 L 16.171875 -12.484375 Z M 16.90625 -8.03125 L 11.203125 -7.71875 L 8.484375 -0.671875 C 6.734375 -0.160156 5.421875 0.09375 4.546875 0.09375 C 3.128906 0.09375 1.863281 -0.601562 0.75 -2 L 9.78125 -25.28125 C 12.644531 -26.070312 14.535156 -26.46875 15.453125 -26.46875 C 16.710938 -26.46875 17.9375 -25.984375 19.125 -25.015625 L 27.484375 -0.84375 C 24.734375 -0.164062 22.925781 0.171875 22.0625 0.171875 C 20.65625 0.171875 19.664062 -0.425781 19.09375 -1.625 Z M 16.90625 -8.03125 "/></g></g></g><g fill="#004aad" fill-opacity="1"><g transform="translate(266.096075, 221.614897)"><g><path d="M 10.03125 -15.328125 L 13.859375 -15.53125 C 14.472656 -15.59375 14.992188 -15.863281 15.421875 -16.34375 C 15.859375 -16.832031 16.078125 -17.484375 16.078125 -18.296875 C 16.078125 -19.179688 15.738281 -19.75 15.0625 -20 C 14.382812 -20.257812 13.679688 -20.398438 12.953125 -20.421875 L 10.03125 -20.421875 Z M 17.046875 -0.921875 L 11.40625 -9.90625 L 10.03125 -9.984375 L 10.03125 -0.84375 C 8.53125 -0.0820312 7.375 0.304688 6.5625 0.328125 C 4.726562 0.328125 3.546875 -0.488281 3.015625 -2.125 L 3.015625 -26.140625 L 12.90625 -26.140625 C 15.96875 -26.117188 18.492188 -25.378906 20.484375 -23.921875 C 22.484375 -22.472656 23.484375 -20.585938 23.484375 -18.265625 C 23.484375 -16.742188 22.890625 -15.113281 21.703125 -13.375 C 20.515625 -11.632812 19.742188 -10.742188 19.390625 -10.703125 L 25.515625 -1.140625 C 22.816406 -0.160156 20.992188 0.328125 20.046875 0.328125 C 18.941406 0.328125 17.941406 -0.0859375 17.046875 -0.921875 Z M 17.046875 -0.921875 "/></g></g></g><g fill="#004aad" fill-opacity="1"><g transform="translate(291.495949, 221.614897)"><g><path d="M 3.015625 -26.109375 L 21.96875 -26.109375 C 23.363281 -25.054688 24.070312 -24.175781 24.09375 -23.46875 C 24.070312 -22.75 23.617188 -21.679688 22.734375 -20.265625 L 11.28125 -20.265625 L 11.28125 -15.921875 L 20.5625 -16.671875 C 22.425781 -15.960938 23.359375 -15.207031 23.359375 -14.40625 C 23.359375 -13.507812 22.78125 -12.453125 21.625 -11.234375 L 11.28125 -10.484375 L 11.28125 -5.640625 L 21.71875 -5.640625 C 23.1875 -4.828125 23.9375 -3.90625 23.96875 -2.875 C 23.96875 -2.289062 23.582031 -1.238281 22.8125 0.28125 L 3.015625 0.28125 Z M 3.015625 -26.109375 "/></g></g></g></svg>